<svg id="Capa_1" enable-background="new 0 0 512 512" height="512" viewBox="0 0 512 512" width="512" xmlns="http://www.w3.org/2000/svg"><g><g><path d="m497 .204h-482c-8.284 0-15 6.716-15 15v481.591c0 8.284 6.716 15 15 15h482c8.284 0 15-6.716 15-15v-481.591c0-8.284-6.716-15-15-15zm-15 30v71.306h-452v-71.306zm-452 451.592v-349.877h452v349.876h-452z"/><path d="m121.807 293.279 56.822-55.834c5.909-5.806 5.993-15.303.187-21.212-5.805-5.908-15.303-5.993-21.212-.186l-67.616 66.44c-2.854 2.804-4.47 6.632-4.487 10.633s1.564 7.843 4.394 10.672l67.616 67.616c2.929 2.929 6.768 4.394 10.606 4.394s7.678-1.464 10.606-4.394c5.858-5.858 5.858-15.355 0-21.213z"/><path d="m364.49 216.139c-5.857-5.858-15.355-5.858-21.213 0s-5.858 15.355 0 21.213l56.916 56.917-56.822 55.834c-5.909 5.806-5.993 15.303-.187 21.212 2.937 2.989 6.816 4.487 10.7 4.487 3.794 0 7.592-1.431 10.512-4.301l67.616-66.44c2.854-2.804 4.47-6.632 4.487-10.633s-1.564-7.843-4.394-10.672z"/><path d="m284.783 212.609c-7.81-2.767-16.382 1.316-19.151 9.124l-47.539 134.057c-2.769 7.808 1.316 16.382 9.124 19.15 1.658.588 3.35.867 5.014.867 6.173 0 11.956-3.84 14.138-9.991l47.539-134.056c2.768-7.809-1.317-16.383-9.125-19.151z"/></g><path d="m445.232 81.465c8.141 0 15.94-7.085 15.564-15.403-.378-8.345-6.839-15.403-15.564-15.403-8.141 0-15.94 7.085-15.564 15.403.378 8.345 6.839 15.403 15.564 15.403z"/><path d="m388.768 81.465c8.141 0 15.94-7.085 15.564-15.403-.378-8.345-6.839-15.403-15.564-15.403-8.141 0-15.94 7.085-15.564 15.403.378 8.345 6.839 15.403 15.564 15.403z"/></g></svg>